<?xml version="1.0" standalone="no"?>
<!DOCTYPE svg PUBLIC "-//W3C//DTD SVG 20010904//EN"
 "http://www.w3.org/TR/2001/REC-SVG-20010904/DTD/svg10.dtd">
<svg version="1.0" xmlns="http://www.w3.org/2000/svg"
 width="1536.000000pt" height="1024.000000pt" viewBox="0 0 1536.000000 1024.000000"
 preserveAspectRatio="xMidYMid meet">

<g transform="translate(0.000000,1024.000000) scale(0.100000,-0.100000)"
fill="#000000" stroke="none">
<path d="M3768 6583 c-10 -2 -18 -11 -18 -18 0 -15 5 -16 90 -36 122 -27 133
-37 263 -244 114 -179 196 -309 323 -509 l95 -150 -3 -294 -3 -294 -33 -28
c-19 -15 -64 -39 -100 -52 -42 -15 -68 -31 -70 -41 -3 -16 27 -17 405 -15 353
3 408 5 411 18 2 10 -16 21 -58 34 -33 11 -74 28 -91 38 -56 34 -59 56 -59
390 l0 302 57 91 c31 49 143 221 249 381 215 326 226 338 354 374 87 25 102
44 43 54 -49 8 -526 8 -547 0 -25 -10 -19 -33 12 -40 15 -4 44 -15 65 -26 62
-31 50 -71 -80 -268 -62 -93 -184 -287 -240 -378 l-20 -34 -55 94 c-30 51
-108 181 -173 288 -131 216 -145 257 -101 285 14 9 45 23 68 30 31 9 43 17 43
31 0 18 -15 19 -405 21 -223 0 -413 -1 -422 -4z m733 -31 c-24 -9 -52 -28 -63
-42 -31 -42 -32 -38 225 -462 69 -115 128 -217 132 -228 3 -11 10 -20 14 -20
3 0 38 48 76 108 38 59 116 179 174 267 116 178 171 274 171 297 0 29 -35 59
-90 78 l-55 19 270 -1 c256 0 266 -1 197 -14 -84 -15 -148 -49 -183 -96 -30
-40 -307 -467 -408 -627 l-71 -114 0 -307 c0 -169 3 -321 6 -338 10 -49 53
-91 114 -112 l55 -19 -345 0 -345 0 58 19 c124 39 127 48 127 407 l0 288 -93
146 c-50 80 -164 259 -252 399 -88 139 -175 268 -192 286 -34 34 -128 69 -208
77 -22 2 133 4 345 5 372 1 384 0 341 -16z m86 12 c-3 -3 -12 -4 -19 -1 -8 3
-5 6 6 6 11 1 17 -2 13 -5z"/>
<path d="M6223 6393 c-12 -21 -61 -123 -111 -228 -91 -193 -326 -687 -445
-938 -81 -168 -125 -218 -237 -264 -42 -18 -76 -38 -78 -47 -3 -14 29 -16 301
-16 259 0 306 2 310 15 4 8 1 17 -5 21 -13 8 -513 5 -535 -3 -11 -4 -14 -2 -9
5 4 7 15 12 24 12 27 0 100 43 139 80 44 43 82 113 211 380 216 448 342 714
417 879 28 63 56 116 62 118 9 3 166 -315 376 -762 272 -578 314 -647 427
-685 l55 -19 -330 0 -330 -1 42 20 c62 28 64 51 14 168 -23 53 -52 117 -65
142 l-23 45 -272 3 -272 2 -44 -94 c-100 -216 -99 -253 10 -271 l40 -6 -42 20
c-37 17 -43 25 -43 50 0 17 18 68 39 113 22 46 44 96 50 111 l11 27 255 -2
255 -3 50 -114 c69 -158 69 -157 -25 -198 -27 -11 -51 -28 -53 -37 -3 -14 36
-16 392 -16 378 0 396 1 396 18 0 19 -37 42 -66 42 -29 0 -91 39 -133 85 -42
45 -153 262 -323 630 -105 227 -349 719 -365 738 -25 27 -47 20 -70 -20z"/>
<path d="M10048 6408 c-21 -32 -138 -277 -215 -448 -36 -80 -76 -169 -90 -199
-113 -251 -301 -644 -325 -678 -37 -55 -86 -92 -162 -123 -37 -15 -62 -32 -64
-43 -3 -16 14 -17 290 -15 270 3 293 4 296 21 3 12 -3 17 -20 17 -13 1 -43 11
-68 23 -64 32 -64 56 2 195 l53 112 251 0 252 0 7 -27 c3 -15 26 -67 51 -115
24 -49 44 -97 44 -107 0 -28 -45 -59 -122 -85 -10 -3 -18 -12 -18 -21 0 -13
47 -15 394 -15 336 0 395 2 406 15 14 16 19 13 -68 41 -118 37 -165 97 -311
397 -50 104 -91 191 -91 193 0 13 -391 807 -419 852 -24 37 -53 41 -73 10z
m123 -158 c90 -181 329 -672 329 -676 0 -17 237 -480 264 -516 40 -53 93 -91
146 -104 23 -6 -78 -11 -300 -14 -184 -3 -337 -4 -338 -3 -2 1 13 6 33 12 40
11 85 46 85 67 0 7 -20 57 -44 111 -24 54 -53 119 -64 146 l-21 47 -270 0
-270 0 -27 -57 c-101 -220 -110 -255 -76 -286 10 -9 36 -21 58 -26 28 -6 -25
-10 -194 -12 -219 -4 -274 0 -199 15 17 4 59 26 92 49 70 50 96 95 246 422
129 279 439 946 451 969 5 10 14 14 18 10 5 -5 41 -74 81 -154z"/>
<path d="M9938 5837 c-20 -45 -71 -158 -112 -250 -42 -92 -76 -170 -76 -172 0
-6 450 -3 450 3 1 12 -215 502 -220 502 -3 0 -22 -37 -42 -83z m62 -39 c0 -6
34 -87 75 -181 58 -131 73 -172 63 -179 -12 -8 -316 -10 -330 -2 -3 3 26 75
66 162 40 86 78 174 85 195 11 31 15 36 27 26 8 -6 14 -16 14 -21z"/>
<path d="M7392 6393 c-37 -7 -20 -26 43 -48 107 -37 100 11 103 -648 2 -315 0
-591 -3 -615 -8 -58 -41 -92 -116 -122 -40 -16 -65 -32 -67 -43 -3 -16 20 -17
404 -15 315 2 408 6 412 15 2 7 -5 16 -15 19 -10 3 -27 10 -38 14 -11 5 -36
13 -55 19 -19 6 -48 22 -65 35 l-30 24 -3 611 -2 611 63 0 c77 0 160 -23 205
-57 122 -92 119 -412 -6 -496 -45 -31 -87 -44 -176 -56 -37 -5 -71 -13 -75
-16 -3 -4 4 -14 17 -24 77 -54 93 -77 187 -259 120 -230 171 -309 237 -361 84
-67 118 -74 401 -79 265 -4 296 1 262 38 -9 10 -34 20 -55 23 -101 13 -183 98
-320 328 -51 86 -108 167 -142 203 -32 33 -57 61 -55 62 1 1 25 13 52 27 186
94 260 357 158 560 -79 158 -236 231 -528 246 -158 8 -754 11 -793 4z m983
-44 c168 -36 267 -105 323 -227 23 -49 26 -71 27 -157 0 -92 -3 -105 -31 -166
-18 -37 -48 -85 -69 -107 -41 -46 -138 -99 -197 -109 -41 -6 -62 -23 -29 -23
40 0 108 -39 152 -87 24 -27 81 -112 127 -189 130 -220 205 -300 312 -330 40
-12 17 -13 -190 -11 -231 2 -236 3 -292 29 -100 47 -157 120 -283 363 -107
206 -129 240 -173 261 l-37 18 47 7 c68 10 148 36 186 59 83 51 124 185 105
340 -12 94 -29 138 -72 183 -53 58 -149 87 -288 87 l-74 0 3 -617 c3 -578 4
-620 21 -645 25 -37 63 -60 122 -74 42 -10 -4 -12 -305 -13 l-355 0 55 19 c66
22 97 55 105 112 3 24 5 309 3 635 l-3 591 -24 26 c-15 16 -41 29 -63 33 -21
3 -40 8 -42 12 -2 3 188 5 422 3 378 -3 437 -5 517 -23z"/>
<path d="M6095 5795 c-82 -171 -165 -360 -165 -374 0 -8 75 -11 230 -11 127 0
230 2 230 5 0 3 -46 108 -101 233 -56 125 -107 240 -114 257 -13 30 -13 29
-80 -110z m125 -87 c29 -68 68 -155 86 -195 17 -39 29 -74 26 -77 -9 -9 -325
-7 -340 2 -9 6 -2 31 32 103 66 142 97 210 113 252 8 20 18 37 22 37 4 0 31
-55 61 -122z"/>
</g>
</svg>
