<?xml version="1.0" encoding="UTF-8" standalone="no"?>
<!-- PadelYara Lockup — Vertikal, hell -->

<svg
   version="1.1"
   width="400"
   height="420"
   viewBox="0 0 400 420"
   id="svg3"
   sodipodi:docname="lockup-vertical-light.svg"
   inkscape:version="1.4.4 (dcaf3e7, 2026-05-05)"
   xmlns:inkscape="http://www.inkscape.org/namespaces/inkscape"
   xmlns:sodipodi="http://sodipodi.sourceforge.net/DTD/sodipodi-0.dtd"
   xmlns="http://www.w3.org/2000/svg"
   xmlns:svg="http://www.w3.org/2000/svg">
  <sodipodi:namedview
     id="namedview3"
     pagecolor="#ffffff"
     bordercolor="#000000"
     borderopacity="0.25"
     inkscape:showpageshadow="2"
     inkscape:pageopacity="0.0"
     inkscape:pagecheckerboard="0"
     inkscape:deskcolor="#d1d1d1"
     inkscape:zoom="1.8642857"
     inkscape:cx="200.07663"
     inkscape:cy="210"
     inkscape:window-width="1920"
     inkscape:window-height="1001"
     inkscape:window-x="-9"
     inkscape:window-y="-9"
     inkscape:window-maximized="1"
     inkscape:current-layer="svg3" />
  <defs
     id="defs1">
    <style
       id="style1">
      @import url('https://fonts.googleapis.com/css2?family=Cinzel:wght@400;600&amp;display=swap');
    </style>
  </defs>
  <rect
     width="400"
     height="420"
     fill="#ffffff"
     rx="12"
     id="rect1" />
  <g
     transform="matrix(0.503,0,0,0.503,135.07921,90.802102)"
     id="g1">
    <path
       fill="#111111"
       fill-rule="evenodd"
       d="m 144.14679,384.31766 c 1.28511,-0.66456 2.70723,-1.90089 3.16027,-2.74741 1.18012,-2.20507 0.97069,-6.58272 -0.40172,-8.39722 -0.64601,-0.8541 -1.17456,-3.04941 -1.17456,-4.87847 0,-3.25155 -0.0846,-3.35451 -3.8,-4.62566 -2.09,-0.71505 -9.47,-3.26368 -16.4,-5.66363 l -12.6,-4.36354 -0.005,8.5421 c -0.004,7.17889 -0.25893,8.92512 -1.59473,10.94211 -2.04004,3.08036 -2.03371,6.83286 0.0159,9.43856 2.06266,2.62225 2.68603,2.72201 17.82379,2.85249 9.87354,0.0851 13.15108,-0.15548 14.97628,-1.09933 z m 1.57306,-36.19172 c -0.006,-3.41 -0.20792,-6.93326 -0.4487,-7.82947 -0.35045,-1.30438 -3.3408,-2.61077 -14.98908,-6.54824 -8.00321,-2.70533 -15.18129,-5.16059 -15.95129,-5.45613 -1.2731,-0.48864 -1.4,0.15501 -1.4,7.10103 0,5.1897 0.31752,7.84586 0.99047,8.28559 1.43386,0.93694 28.74817,10.39811 30.40953,10.53329 1.22355,0.0996 1.39862,-0.66749 1.38907,-6.08607 z m 0.0109,-26.04934 c 0,-11.81874 5.8309,-27.12401 15.05409,-39.51479 2.68734,-3.61028 8.9525,-11.35028 13.9226,-17.20001 25.21861,-29.68195 36.45753,-45.79012 47.8883,-68.63587 11.41077,-22.80578 17.55589,-47.06865 17.52114,-69.17901 C 240.0668,95.65871 229.82458,66.337755 211.36832,45.246751 184.74943,14.827841 142.01188,2.114348 101.73078,12.631963 60.5935,23.373132 32.27612,52.8726 21.75892,95.9422 c -9.22038,37.75886 -1.3754,77.79605 23.27562,118.7881 9.52728,15.84285 19.11904,28.5262 39.01911,51.59563 17.46391,20.24528 23.38029,29.77629 26.72711,43.05611 0.96251,3.81914 2.11002,7.21592 2.55002,7.54839 0.44,0.33247 3.5,1.49149 6.8,2.57559 3.3,1.0841 9.96,3.3825 14.8,5.10756 4.84,1.72506 9.25,3.17605 9.8,3.22442 0.71684,0.063 1,-1.56836 1,-5.7614 z m -23.68507,-20.472 c -1.70372,-1.03891 -3.80298,-3.99346 -6.67672,-9.39701 -5.92949,-11.14931 -11.52142,-18.45541 -32.57923,-42.56615 -5.6511,-6.47039 -17.85898,-22.12962 -17.85898,-22.90798 0,-0.21063 1.89,1.05451 4.2,2.81142 2.36874,1.80158 7.86252,4.6097 12.6,6.44043 10.39456,4.01682 14.57186,6.41149 16.90841,9.69288 l 1.81297,2.54608 0.94544,-3.54917 c 0.52,-1.95204 2.06769,-6.13943 3.43931,-9.30532 4.64005,-10.70979 3.22313,-13.78077 -7.9682,-17.27004 -11.48017,-3.57934 -16.71,-8.63734 -20.0474,-19.38873 -2.01509,-6.4916 -1.88132,-6.37004 -10.92015,-9.92267 -2.32629,-0.91432 -4.71685,-1.66241 -5.31236,-1.66241 -1.41979,0 -4.45802,11.22584 -4.45802,16.4718 0,2.17956 0.67166,6.38504 1.49257,9.34552 0.82092,2.96047 1.39587,5.38268 1.27766,5.38268 -0.79607,0 -11.09399,-18.11647 -15.20032,-26.74095 C 32.97251,169.05273 28.01128,148.68079 28.00281,127.12593 27.98941,93.16572 41.10749,62.156972 63.31622,43.651228 76.95361,32.28767 91.70651,25.195429 108.88568,21.744373 c 9.50552,-1.909526 32.89409,-1.883972 42.64304,0.04659 21.15114,4.188512 41.45078,16.400692 54.74598,32.934964 18.81412,23.397735 27.44787,56.649673 22.99753,88.572503 -2.10862,15.12539 -5.06174,25.66927 -11.37892,40.6275 -3.06789,7.26436 -13.60352,27.08161 -16.16183,30.4 l -1.54189,2 1.17058,-3.92714 c 1.65574,-5.55482 1.45945,-12.96371 -0.5137,-19.38859 -0.92635,-3.01635 -1.80303,-5.61095 -1.94817,-5.76577 -0.38587,-0.41162 -8.30153,2.267 -11.61998,3.93215 -2.46335,1.23607 -3.03625,2.09245 -4.20003,6.27836 -2.94289,10.585 -9.35553,17.28049 -19.2885,20.13929 -8.27072,2.3804 -10.80156,3.67635 -11.67722,5.97951 -1.25157,3.29188 -0.96665,4.85281 2.41818,13.2482 1.76,4.36533 3.2,8.70944 3.2,9.65359 0,1.48689 0.40149,1.28468 3,-1.51095 3.36804,-3.62355 6.35944,-5.29921 16.2,-9.07458 3.74,-1.43487 8.96,-4.06392 11.6,-5.84233 l 4.8,-3.23348 -2.35483,3.15587 c -4.95383,6.63897 -14.43289,18.2417 -24.88426,30.45927 -11.87463,13.88135 -18.79592,23.6195 -23.65248,33.27873 -3.88522,7.72732 -6.23142,9.41189 -13.10843,9.41189 -3.30267,0 -5.5752,-0.4727 -7.28507,-1.51535 z m 16.40019,-31.32709 c 1.7709,-0.9953 3.06254,-2.06412 2.8703,-2.37516 -0.19223,-0.31104 -2.06759,-0.80611 -4.16747,-1.10017 -2.09987,-0.29405 -4.67606,-1.00991 -5.72485,-1.5908 -1.60647,-0.88977 -2.29118,-0.86445 -4.34609,0.16067 -1.34155,0.66925 -4.17345,1.38347 -6.2931,1.58714 -2.11965,0.20367 -3.85391,0.60689 -3.85391,0.89604 0,0.69681 4.39954,3.27067 7.07411,4.13856 3.5219,1.14284 10.91785,0.26385 14.44101,-1.71628 z m -15.13131,-8.43844 c 4.32216,-1.72938 4.19506,-3.66436 -0.55763,-8.48961 l -3.77383,-3.83144 1.68069,-1.68069 c 2.17467,-2.17466 10.43382,-2.93171 15.06696,-1.38107 4.63775,1.55218 4.65073,3.71174 0.0454,7.56128 -2.00499,1.67597 -3.64544,3.68268 -3.64544,4.45936 0,2.03773 3.20403,3.83634 7.69881,4.3218 5.32498,0.57512 8.92371,-1.34992 11.35265,-6.07277 2.41224,-4.69038 1.9912,-7.95256 -2.34272,-18.15143 -3.08611,-7.26241 -3.34167,-8.41616 -3.42197,-15.44857 -0.12412,-10.87116 2.04255,-15.61395 11.56443,-25.31428 10.70151,-10.90205 27.48825,-19.39468 49.9488,-25.26976 1.76,-0.46036 3.51475,-1.12004 3.89945,-1.46595 1.09355,-0.98327 -9.53053,-16.53454 -14.98769,-21.93861 -2.88422,-2.85617 -7.27123,-6.09127 -10.62764,-7.83711 -5.67134,-2.94995 -5.7111,-2.9934 -5.10176,-5.57371 3.54254,-15.00124 8.3478,-26.41101 15.85676,-37.65077 2.4803,-3.71263 3.82923,-5.11402 4.23119,-4.39576 2.24091,4.00429 3.05294,29.42819 1.40328,43.93558 -0.86804,7.63372 -0.83215,8.2159 0.56966,9.24092 1.39248,1.01821 1.59364,0.74694 2.90567,-3.9183 3.38313,-12.02961 4.65543,-30.50606 3.01837,-43.83324 -0.79114,-6.44066 -3.42892,-17.479432 -4.7568,-19.906587 -0.79453,-1.452364 -13.12187,10.760927 -21.72855,21.527577 -7.36562,9.21413 -21.45268,28.80464 -26.32543,36.61011 -3.02635,4.8478 -4.1527,5.95706 -7.55647,7.44187 -2.2,0.95969 -6.92007,3.1406 -10.48904,4.84646 -3.56897,1.70586 -6.84517,3.10156 -7.28045,3.10156 -0.43528,0 -5.85092,-2.25126 -12.03476,-5.0028 l -11.24334,-5.00281 -7.00034,-9.99719 C 84.36674,110.85023 70.25276,93.19238 60.5832,83.806015 l -5.62044,-5.455836 -1.01637,1.939808 c -3.2964,6.291403 -5.41215,27.391133 -4.2154,42.038873 0.77121,9.43928 2.53976,19.75697 4.0817,23.8126 0.77581,2.04052 0.80906,2.04823 2.27551,0.52762 1.4085,-1.46051 1.42527,-1.90732 0.3132,-8.34315 -1.50445,-8.70657 -1.69181,-29.55962 -0.34682,-38.6 0.57279,-3.85 1.27425,-6.99535 1.5588,-6.98967 0.85423,0.0171 7.76191,11.13474 11.2452,18.09877 3.39753,6.79257 8.59565,21.42164 9.02383,25.39579 0.22673,2.10435 -0.22032,2.55824 -5.13802,5.21664 -8.54085,4.61699 -16.41326,13.2282 -22.93884,25.09155 -1.81298,3.29596 -2.24301,4.701 -1.50614,4.921 0.56724,0.16935 5.06019,1.4479 9.98435,2.84121 25.67181,7.26394 44.79674,20.10849 52.85534,35.49832 1.95786,3.739 2.15748,4.915 2.12623,12.52639 -0.0331,8.06128 -0.17045,8.71649 -3.40649,16.24857 -4.41102,10.26691 -4.82538,13.47129 -2.34716,18.15143 3.14614,5.94153 8.99934,7.83538 15.80288,5.11314 z M 99.66532,209.04034 c 3.22569,-1.23781 -0.40471,-6.9431 -7.03521,-11.05606 -2.92286,-1.81308 -3.93042,-0.63865 -3.38159,3.94165 0.63179,5.27267 5.87839,8.85596 10.4168,7.11441 z m 66.69199,-0.76297 c 3.37955,-2.36713 5.17585,-7.92976 3.4439,-10.66481 -0.57886,-0.91414 -1.1851,-0.78373 -3.38775,0.72871 -3.54307,2.43284 -7.04484,5.66113 -7.94997,7.32911 -1.71936,3.16842 4.2688,5.14605 7.89382,2.60699 z M 134.2117,121.25925 c 3.84789,-3.30982 2.1309,-10.23254 -2.80689,-11.31706 -6.48091,-1.42344 -10.80814,6.52236 -6.1104,11.22011 2.51685,2.51684 6.05923,2.55536 8.91729,0.097 z M 117.6694,93.05481 c 6.70137,-5.63883 -1.34429,-15.287695 -8.23073,-9.870819 -1.60065,1.259072 -2.10494,2.366005 -2.09564,4.599999 0.014,3.35529 0.40836,4.10132 3.16575,5.98831 2.71724,1.85951 4.28468,1.70246 7.16062,-0.71749 z m 31.23447,0.88503 c 2.80561,-1.45083 4.56018,-5.92266 3.26983,-8.33371 -2.15361,-4.024054 -7.59386,-5.329263 -10.42257,-2.500552 -3.49495,3.494952 -2.71991,8.809142 1.60383,10.996982 2.51635,1.27329 2.78734,1.26535 5.54891,-0.16272 z M 101.88591,63.893876 c 2.03253,-2.032532 2.34894,-2.847578 1.92615,-4.961541 -0.70904,-3.545189 -3.44339,-6.206408 -6.37696,-6.206408 -2.9431,0 -6.90432,3.506655 -6.90432,6.11203 0,6.729903 6.69857,9.712472 11.35513,5.055919 z m 32.72043,0.363673 c 3.04789,-2.758311 2.14471,-8.687077 -1.63125,-10.707907 -4.18274,-2.238533 -9.66757,1.117402 -9.61887,5.885376 0.0596,5.838467 6.89148,8.76704 11.25012,4.822531 z m 32.85853,-0.151066 c 3.8061,-3.922321 0.57255,-11.380556 -4.93409,-11.380556 -4.89595,0 -8.01114,5.894753 -5.5477,10.497719 1.74543,3.26138 7.68804,3.7619 10.48179,0.882837 z"
       id="path1" />
  </g>
  <text
     x="200"
     y="352"
     font-family="Cinzel, serif"
     font-size="46"
     font-weight="400"
     fill="#111111"
     letter-spacing="5"
     text-anchor="middle"
     id="text2"><tspan
       font-weight="400"
       id="tspan1">Padel</tspan><tspan
       font-weight="600"
       id="tspan2">Yara</tspan></text>
  <text
     x="200"
     y="382"
     font-family="Cinzel, serif"
     font-size="12"
     font-weight="600"
     fill="#555555"
     letter-spacing="3"
     text-anchor="middle"
     id="text3">Dein Match. Dein Moment.</text>
</svg>
