<?xml version="1.0" encoding="UTF-8" standalone="no"?>
<!-- Created with Inkscape (http://www.inkscape.org/) -->

<svg
   version="1.1"
   id="svg1"
   width="293"
   height="415"
   viewBox="0 0 293 415"
   sodipodi:docname="padelyara-logo-v1.svg"
   inkscape:version="1.4.4 (dcaf3e7, 2026-05-05)"
   xmlns:inkscape="http://www.inkscape.org/namespaces/inkscape"
   xmlns:sodipodi="http://sodipodi.sourceforge.net/DTD/sodipodi-0.dtd"
   xmlns="http://www.w3.org/2000/svg"
   xmlns:svg="http://www.w3.org/2000/svg">
  <defs
     id="defs1" />
  <sodipodi:namedview
     id="namedview1"
     pagecolor="#ffffff"
     bordercolor="#000000"
     borderopacity="0.25"
     inkscape:showpageshadow="2"
     inkscape:pageopacity="0.0"
     inkscape:pagecheckerboard="0"
     inkscape:deskcolor="#d1d1d1"
     showgrid="false"
     inkscape:zoom="1.886747"
     inkscape:cx="146.28352"
     inkscape:cy="207.23499"
     inkscape:window-width="1920"
     inkscape:window-height="1001"
     inkscape:window-x="-9"
     inkscape:window-y="-9"
     inkscape:window-maximized="1"
     inkscape:current-layer="g1" />
  <g
     inkscape:groupmode="layer"
     inkscape:label="Image"
     id="g1">
    <path
       style="display:inline;fill:#000000"
       d="M 0.22478,208.39017 V 0.890166 h 146.5 146.5 v 207.500004 207.5 h -146.5 -146.5 z m 167.75,186.75211 c 1.56623,-2.04783 1.63648,-9.46563 0.10417,-10.99794 -0.63021,-0.63021 -2.32058,-0.91089 -3.75637,-0.62373 -1.4358,0.28716 -8.09385,-0.86221 -14.79568,-2.55417 -6.70182,-1.69195 -12.43645,-3.07627 -12.74363,-3.07627 -0.30717,0 -0.5728,1.0125 -0.59029,2.25 -0.0175,1.2375 -0.6925,3.12351 -1.5,4.19113 -2.35715,3.11642 -1.84207,8.27591 1.12211,11.24009 l 2.59032,2.59032 14.15968,-0.69253 c 11.36361,-0.55578 14.40652,-1.01526 15.40969,-2.3269 z m -20.46349,-9.99219 c 3.18258,-0.19905 8.13258,-0.1972 11,0.004 2.86742,0.20131 0.26349,0.36417 -5.78651,0.36191 -6.05,-0.002 -8.39607,-0.16696 -5.21349,-0.36601 z m 18.71349,-16.55576 v -6.29583 l -14.53893,-3.49857 c -7.99642,-1.92421 -14.63392,-3.40503 -14.75,-3.29071 -0.11609,0.11432 -0.0618,2.88399 0.12071,6.15482 l 0.33179,5.94696 14.16821,3.52851 c 7.79252,1.94068 14.28072,3.57849 14.41822,3.63959 0.1375,0.0611 0.25,-2.72206 0.25,-6.18477 z m -0.003,-20.95416 -0.003,-6.25 -14.65028,-3.76344 c -8.05766,-2.0699 -14.71178,-3.6449 -14.78692,-3.5 -0.0751,0.14489 0.0286,2.97239 0.23044,6.28334 l 0.36707,6.0199 14.17278,3.61208 c 7.79503,1.98664 14.28528,3.66519 14.42278,3.7301 0.1375,0.0649 0.24868,-2.69448 0.24707,-6.13198 z m 0.003,-20.28518 c 0,-1.39435 0.73601,-3.65848 1.63557,-5.03139 1.19206,-1.81931 1.48298,-3.78466 1.07283,-7.24776 -0.71369,-6.02596 2.56992,-14.19643 10.77215,-26.80392 6.91887,-10.63486 9.12515,-13.33528 30.93264,-37.86066 19.07052,-21.4473 26.39763,-30.90368 34.07481,-43.97703 28.47593,-48.49118 28.44073,-101.69762 -0.0941,-142.171358 C 234.23802,49.538894 215.10897,34.188884 197.72478,26.63306 155.73314,8.381909 103.92022,17.197679 70.53444,48.274008 32.49151,83.685336 23.72584,140.09872 48.25077,191.68549 c 10.46326,22.00886 19.50438,34.3478 45.84197,62.56323 20.49011,21.95103 28.9066,32.71531 35.13767,44.93941 4.30086,8.43743 4.99437,10.60744 4.99437,15.62755 0,3.45841 0.50844,6.24037 1.25,6.83948 0.6875,0.55544 5.75,2.17922 11.25,3.6084 5.5,1.42918 11.35,3.01616 13,3.52661 5.22669,1.61695 6.5,1.33581 6.5,-1.43518 z m -19.59665,-25.38808 c -1.15316,-0.49436 -4.48478,-4.65136 -7.40361,-9.23779 C 129.83703,277.97834 121.05163,267.41259 97.3915,242.41869 66.77668,210.07805 51.96513,183.47647 46.70754,151.39017 37.70499,96.44893 69.9446,46.099679 123.01897,32.213077 c 11.96193,-3.129771 31.85276,-4.189493 44.34662,-2.36265 41.16876,6.019669 73.32866,34.895045 84.57269,75.935203 2.32861,8.4993 2.63863,11.50327 2.69412,26.10454 0.0692,18.22048 -1.26865,26.71696 -6.61348,42 -8.4772,24.23974 -19.01076,40.29964 -47.21093,71.97974 -23.79378,26.72996 -33.74272,39.40891 -38.85949,49.52262 -0.83543,1.6513 -2.43011,3.82693 -3.54372,4.83475 -2.33376,2.11202 -8.71069,3.05401 -11.77665,1.73963 z m -1.80448,-49.69068 c 4.84658,-2.29985 4.40553,-4.80988 -1.84887,-10.52207 -6.84682,-6.25326 -5.87784,-6.94721 9.23792,-6.61583 13.72792,0.30095 14.70315,1.28863 7.04151,7.13147 -6.19639,4.72543 -6.66669,7.61556 -1.6283,10.00643 8.7031,4.12989 14.69469,0.45742 21.10081,-12.9335 3.24544,-6.78404 3.75692,-7.30337 13.68476,-13.89464 9.76705,-6.48453 20.85178,-16.04803 22.88877,-19.74761 0.6566,-1.19252 0.027,-4.18626 -2.13983,-10.17453 l -3.07017,-8.48484 -2.87468,1.00212 c -3.80978,1.32809 -4.43481,2.29925 -5.91994,9.19816 -1.02319,4.75309 -2.13334,6.75187 -5.91522,10.65015 -4.85885,5.00839 -9.45715,6.98257 -16.28842,6.99305 -3.32174,0.005 -4.04952,0.57436 -8.5,6.6485 l -4.86721,6.64293 -0.32282,-4.89293 c -0.17755,-2.6911 0.20061,-7.57198 0.84035,-10.84638 1.00895,-5.16412 1.76942,-6.48997 5.73573,-10 16.07864,-14.22901 27.23266,-20.87969 40.30194,-24.0304 4.09464,-0.98712 7.58869,-1.91347 7.76456,-2.05855 1.01198,-0.83481 -8.14726,-15.82762 -12.64408,-20.69716 -2.85677,-3.09356 -2.4353,-4.50493 0.82432,-2.76043 1.19421,0.63912 2.2543,1.01308 2.35576,0.83102 0.10146,-0.18206 0.68256,-1.68102 1.29134,-3.33102 0.60878,-1.65 1.43538,-3.7875 1.83688,-4.75 0.5619,-1.34701 0.24013,-1.75 -1.39732,-1.75 h -2.12731 l 2.05803,-4.03406 c 1.13191,-2.21874 2.4897,-5.16946 3.0173,-6.55715 1.07957,-2.8395 1.08062,-2.83983 -5.85496,1.85778 -2.37615,1.60942 -4.55319,2.69329 -4.83787,2.40861 -0.28468,-0.28468 3.21612,-8.87388 7.77956,-19.08711 4.56343,-10.21323 8.5895,-18.23619 8.94681,-17.82879 2.41125,2.74925 3.80955,31.69481 2.04734,42.3811 -0.56296,3.41389 -0.33063,5.7519 0.87904,8.84581 l 1.64426,4.20543 1.21732,-5.43957 c 2.0195,-9.02407 2.88549,-24.02246 2.0242,-35.05806 -0.80049,-10.25668 -4.38245,-29.482338 -5.76438,-30.939505 -0.72809,-0.767727 -20.6887,20.520415 -30.46057,32.486435 -3.02768,3.7075 -8.08646,10.4575 -11.24172,15 -3.15527,4.54249 -6.0204,8.59283 -6.36696,9.00076 -0.34655,0.40792 -4.13843,0.0704 -8.4264,-0.75 -10.0227,-1.91766 -21.27106,-1.89542 -31.59218,0.0625 -9.16961,1.73945 -9.55078,1.61206 -13.21486,-4.41656 C 119.31653,131.54994 106.83033,115.71 99.98956,108.05712 90.04592,96.93298 77.24334,84.05112 76.81696,84.741004 75.51041,86.855058 72.05384,108.92553 71.547,118.39017 c -0.57865,10.80567 0.62491,24.71663 2.85511,33 l 1.07696,4 1.42287,-4 c 1.14326,-3.21397 1.21653,-5.55418 0.37285,-11.909 -1.34611,-10.13927 -1.32831,-18.17147 0.0636,-28.682 1.4986,-11.31652 2.16779,-12.30033 4.64043,-6.82213 7.4921,16.59897 15.246,34.16637 15.246,34.54168 0,0.24529 -2.74544,-1.41842 -6.10098,-3.69712 -5.56951,-3.78218 -6.03745,-3.93788 -5.37169,-1.78726 0.40111,1.2957 1.57155,4.0254 2.60098,6.06599 2.27352,4.5067 2.29056,4.78984 0.28835,4.78984 -0.87645,0 -1.35191,0.55806 -1.06497,1.25 0.28509,0.6875 1.05854,2.90319 1.71877,4.92375 1.10318,3.37615 1.40321,3.59666 3.70367,2.72203 3.89838,-1.48217 3.79666,-0.35366 -0.40091,4.44778 -4.17334,4.77373 -9.77435,13.76249 -10.84618,17.40644 -0.49801,1.69308 -0.25249,2.25 0.99188,2.25 3.79874,0 17.4092,4.65623 22.98108,7.86198 3.3,1.89864 9.6,6.29001 14,9.75861 15.03494,11.8523 14.35446,11.01422 16.00949,19.71738 0.81978,4.31088 1.49051,9.22682 1.49051,10.92431 v 3.08635 l -2.45644,-2.30771 c -1.35104,-1.26923 -3.65514,-4.03743 -5.12023,-6.15155 -2.0199,-2.91472 -3.54117,-3.98294 -6.29356,-4.41926 -12.71233,-2.01523 -17.68931,-4.72624 -21.15769,-11.52484 -1.10521,-2.16638 -2.28546,-5.95248 -2.62279,-8.41356 -0.61507,-4.48741 -2.34978,-6.47723 -6.84929,-7.85654 -1.76808,-0.542 -2.34327,0.42824 -4.96021,8.36688 l -2.9602,8.97996 6.30327,6.35981 c 3.4668,3.49789 11.38707,9.68043 17.60059,13.73899 9.68088,6.32336 11.53048,7.96378 12.92689,11.46488 5.78103,14.4943 14.0571,20.13351 23.18853,15.80037 z m -22.90147,-50.03987 c 0.43405,-1.13114 -0.603,-2.79035 -3.28139,-5.25 l -3.91601,-3.59619 -0.29797,2.55874 c -0.50991,4.3788 1.42114,7.94126 4.3046,7.94126 1.45529,0 2.82945,-0.71224 3.19077,-1.65381 z m 63.22855,0.24304 c 1.51621,-1.82692 2.61926,-8.58923 1.40106,-8.58923 -1.90492,0 -7.5935,6.86315 -6.99068,8.43409 0.74804,1.94936 4.02506,2.04031 5.58962,0.15514 z m -43.33399,-85.08923 c 1.51741,-2.31587 1.51741,-2.68413 0,-5 -1.69037,-2.57983 -5.71739,-3.34006 -8.46696,-1.59842 -1.71567,1.08675 -1.79131,5.59064 -0.12756,7.59534 2.01016,2.42209 6.71162,1.87675 8.59452,-0.99692 z m 25.8909,0.87428 c 2.3401,-2.34009 1.52203,-6.52911 -1.61763,-8.28325 -2.35984,-1.31845 -2.90765,-1.29325 -5.25,0.24151 -2.98757,1.95753 -3.46662,5.67321 -1.0438,8.09603 2.03532,2.03532 5.84799,2.00916 7.91143,-0.0543 z M 125.86728,90.178432 c 1.38474,-5.517243 -7.01852,-8.696404 -10.19052,-3.855324 -1.25904,1.921533 -1.35524,2.879299 -0.45768,4.556407 2.44822,4.574545 9.43963,4.114235 10.6482,-0.701083 z m 57.1075,2.434055 c 2.9826,-2.307839 0.17425,-9.722321 -3.68248,-9.722321 -3.38338,0 -6.19597,3.027854 -5.87371,6.32326 0.4737,4.844124 5.41648,6.602234 9.55619,3.399061 z m -29.28647,-0.682026 c 3.41247,-3.770732 -0.66943,-10.061883 -5.52794,-8.519851 -1.09388,0.347184 -2.70364,1.722113 -3.57724,3.055399 -1.45465,2.220068 -1.45046,2.634631 0.0497,4.924157 2.01962,3.082324 6.51239,3.350394 9.05549,0.540295 z M 123.39604,66.235178 c 3.62218,-3.278027 0.81602,-9.345012 -4.32234,-9.345012 -4.00074,0 -6.56419,6.88473 -3.64892,9.8 1.71585,1.715851 5.83213,1.4809 7.97126,-0.454988 z m 28.82874,-0.345012 c 2.43335,-2.433347 2.54437,-4.740997 0.34501,-7.171259 -3.27544,-3.619329 -10.34501,-1.403344 -10.34501,3.242688 0,2.514893 3.45481,5.928571 6,5.928571 1.1,0 2.9,-0.9 4,-2 z m 29.17126,0.345012 c 4.09722,-3.70793 1.43973,-9.345012 -4.40552,-9.345012 -3.24679,0 -4.76574,1.800879 -4.76574,5.65031 0,4.98144 5.36237,7.141704 9.17126,3.694702 z"
       id="path1" />
  </g>
</svg>
